<svg xmlns="http://www.w3.org/2000/svg" viewBox="0 0 327.57 224.93"><defs><style>.cls-1{fill:#e02521;}.cls-2{fill:#ffe900;stroke:#1e1d1c;stroke-width:4px;fill-rule:evenodd;}</style></defs><title>Ativo 6</title><g id="Camada_2" data-name="Camada 2"><g id="Layer_1" data-name="Layer 1"><path class="cls-1" d="M305.85,60.05V0H285.48V75h-5.84v-15h-14.9V43.49h12.74V29.23H264.74V15.05h13.54V0H244.36V75H230.61l5.26-37.51L241,0H219.52l-.79,7L218.16,14l-.36,4.25-.51,4.32-.43,4.68-.5,4.75L216,36.86l-.51,5L215.13,47l-.36,5.4-.36-5.55-.5-5.76L213.26,35l-.65-6.33L212,21.89l-.87-7-.79-7.27L209.52,0H188l5.9,37.51L199.8,75H184.75V49.39l-.07-1.51V46.66l-.15-1.16-.14-.72-.15-.64-.36-1-.5-1.08-.72-1.15-1-1.23-1.29-1.15-.87-.5-.86-.51-1.08-.36-1.15-.5L175,36.29l-1.51-.43,1.65-.22,1.44-.22,1.3-.43,1.22-.36,1-.5,1-.51.72-.57.65-.79.5-.87.5-1,.36-1.22.36-1.37.29-1.51.15-1.8.07-1.87V18.29L184.53,16,184.24,14l-.21-1.8-.51-1.73L183,9l-.65-1.37-.72-1.08-1.73-2-2-1.66L175.68,1.8,173.3,1,171.86.79,170.13.65l-2-.29L166,.29,164.41.2,161.19.14h-.71L157.32,0H139.46V75h-3.53l-2.81-18.79-2.88-18.72-3-18.72L124.34,0H95L89.85,37.51,84.6,75H81.07V0H54.57L52.34,17.5,50,35l-1.51-9.5L46.94,16l-.58-4.46-.5-4.1-.65-3.89L44.56,0H18.36V224.93H144.5V198.67l0-6.42,23.79,32.26L191,193.71l1.14-1.54.09,14.77v17.84h126V60.05ZM42.28,75H36.07V25.49L43.63,75Zm21.08,0H56.23l3.53-25.27,3.45-25.34.15,25.34Zm43.48-29.37.22-3.17.43-3.31.51-3.75.5-4.17.58-4.47.64-4.75.26-1.84.3-2.2.16-1.21.44,4.6.36,4.4L111.6,30l.5,4,.36,3.89.36,3.67.43,3.46.36,3.24h-7ZM114.75,75h-9.13l.58-6.76.64-6.77h7.28L115.2,75ZM166,50V75h-6.12V41.11l1.87.15,1,.18.33.06.17,0,1.15.51.58.57.29.51.07.5.29.79.14.87.07.86v1.08l.15,1.44Zm0-27.29L165.81,25l-.07,1.66-.29.72-.21.5-.29.51-.36.29-.72.36-.77.17-.22,0-1.39.28h-1.65V12.89h1.65l1.49.29.89.21.86.51.58.72.43,1,.07,1.37.15,1.66Z"/><polygon class="cls-2" points="274.52 112.76 275.31 111.82 277.69 109.59 279.27 108 281.14 106.35 283.3 104.33 285.54 102.39 286.83 101.45 288.06 100.37 289.42 99.36 290.79 98.5 293.53 96.48 296.34 94.61 299.14 92.96 300.66 92.24 302.17 91.59 303.68 91.01 305.05 90.51 306.56 90.08 307.28 89.86 307.93 89.57 308.65 89.72 309.44 90 310.52 90.22 311.67 90.58 312.82 91.01 313.4 91.37 314.05 91.44 314.55 91.95 315.06 92.24 315.56 92.74 315.92 93.1 316.28 93.6 316.57 94.11 316.64 94.61 316.78 95.33 316.78 95.98 316.78 96.2 316.64 96.63 316.42 97.35 316.06 98.07 315.56 99 314.91 99.87 314.41 100.37 314.05 100.88 313.04 101.74 311.96 102.82 310.52 103.97 301.16 109.23 301.02 109.59 300.44 110.38 300.15 110.88 299.79 111.32 299.65 112.11 299.43 112.76 299.29 113.12 299.29 113.48 299.43 114.2 299.58 114.63 299.79 114.77 299.94 115.28 300.15 115.56 300.44 116 300.94 116.28 301.3 116.64 301.81 116.93 302.46 117.29 303.03 117.51 303.82 117.8 304.83 118.01 316.78 118.01 317.58 118.37 318.15 118.66 319.3 119.31 320.31 120.03 321.39 121.04 322.04 121.54 322.69 122.19 323.19 122.76 323.7 123.56 324.06 124.28 324.56 125 324.78 126 325.21 126.87 325.28 128.02 325.57 129.03 325.57 130.18 325.57 131.41 325.28 132.63 325.21 133.42 325.06 134 324.92 134.79 324.7 135.51 324.06 137.02 323.41 138.68 322.69 140.26 321.54 142.06 320.46 143.93 320.02 144.51 318.8 146.31 317.79 147.39 316.64 148.76 315.27 150.12 313.83 151.64 312.03 153.29 310.16 154.8 308.07 156.25 305.91 157.69 304.83 158.26 303.54 158.91 302.31 159.56 301.02 160.06 299.65 160.49 298.28 160.92 296.77 161.28 295.4 161.5 280.78 162 280.21 161.5 279.7 161 279.06 160.42 278.7 160.06 278.34 159.63 277.69 158.55 276.89 157.54 276.54 156.89 276.32 156.39 276.03 155.81 275.82 155.16 275.82 154.37 275.82 153.8 275.82 153 275.82 152.43 275.96 151.64 276.32 151.06 276.54 150.27 277.04 149.55 277.69 148.9 278.34 148.25 279.2 147.68 279.56 147.25 280.21 146.88 281.29 146.31 282.58 145.66 282.94 145.66 284.31 145.66 285.32 145.52 286.54 145.37 287.77 145.16 289.21 144.8 290.94 144.44 292.52 143.79 294.39 142.92 295.4 142.49 296.34 142.06 297.27 141.41 298.28 140.76 300.44 139.4 301.45 138.68 302.53 137.81 303.68 136.88 304.83 135.87 304.33 129.25 303.03 129.25 300.08 129.25 295.69 129.25 293.31 129.25 290.65 129.17 288.2 129.03 285.82 128.81 284.53 128.67 283.45 128.67 281.43 128.38 279.56 128.02 278.91 127.8 278.34 127.52 277.83 127.37 277.4 127.01 277.19 126.8 277.04 126.44 276.89 126.15 276.39 125.5 275.53 124.42 274.66 123.05 274.3 122.26 273.94 121.4 273.58 120.53 273.3 119.67 273.15 118.66 273.08 117.8 273.08 116.79 273.15 116.43 273.3 115.92 274.52 112.76"/><polygon class="cls-2" points="213.9 145.37 213.9 145.3 213.82 145.01 213.82 144.65 213.9 144.15 213.9 143.5 214.19 142.92 214.33 142.28 214.69 140.76 215.05 139.4 215.41 138.25 215.84 137.16 216.42 135.44 217.28 133.42 218.58 130.69 220.09 127.37 221.96 123.92 222.9 122.04 224.05 120.03 225.27 118.01 226.57 116 228.08 114.12 229.52 112.11 231.03 110.09 232.83 108.22 234.42 106.35 236.29 104.62 238.16 102.82 239.02 102.1 240.18 101.24 241.19 100.59 242.34 99.87 244.42 98.5 245.43 97.85 246.66 97.2 247.81 96.7 248.96 96.2 250.19 95.69 251.34 95.33 252.56 94.97 253.78 94.76 255.15 94.32 256.45 94.25 257.82 94.11 259.19 93.96 259.83 93.6 260.55 93.39 261.42 93.1 262.57 92.88 263.94 92.74 264.66 92.74 265.3 92.88 266.02 92.96 266.82 92.96 267.54 93.25 268.33 93.6 269.05 93.96 269.7 94.47 270.42 95.12 271.21 95.84 271.78 96.7 272.43 97.64 272.94 98.72 273.3 99.36 273.44 100.01 273.94 101.24 274.45 102.75 274.81 104.48 275.17 106.2 275.17 107.36 275.31 108.36 275.46 109.44 275.53 110.6 273.8 115.06 273.66 115.56 273.44 116.14 273.15 116.93 272.65 117.51 272.14 118.37 271.93 118.8 271.57 119.02 271.21 119.38 270.78 119.53 270.27 119.81 269.77 119.88 269.34 119.88 268.83 119.88 268.19 119.67 267.54 119.53 266.96 119.16 266.17 118.8 265.3 118.16 264.58 117.51 263.65 116.64 262.78 115.64 261.92 114.48 260.77 113.26 259.83 111.82 258.68 110.09 257.67 110.6 254.94 111.96 253.21 112.83 251.19 114.12 249.18 115.42 248.02 116.14 246.94 116.93 245.94 117.94 244.78 118.8 243.78 119.67 242.84 120.75 241.83 121.76 241.4 122.26 241.04 122.76 240.03 123.92 239.31 125.14 238.52 126.44 237.94 127.66 237.58 128.88 237.15 130.25 236.79 131.55 236.58 132.92 236.58 133.64 236.58 134.43 236.58 135.15 236.65 135.87 236.79 136.37 237.44 137.81 237.8 138.53 238.45 139.4 238.66 139.9 239.02 140.26 239.82 141.27 240.47 141.63 240.9 142.13 241.4 142.49 241.9 142.92 242.55 143.14 243.27 143.43 243.92 143.64 244.28 143.64 244.71 143.79 245.43 143.93 246.3 144 247.3 143.93 248.17 143.93 249.18 143.64 250.19 143.43 251.34 143 252.42 142.49 266.67 134 266.96 134 267.46 134 267.82 134 268.4 134.14 268.9 134.5 269.41 134.79 269.77 135.15 270.06 135.44 270.2 135.8 270.42 136.16 270.7 136.52 270.78 137.16 270.92 138.39 270.92 139.76 270.78 140.62 270.78 141.56 270.56 142.49 270.2 143.5 269.41 146.02 268.9 147.25 268.33 148.76 267.54 149.41 265.66 151.06 264.15 152.14 262.57 153.44 260.7 154.66 258.68 155.88 256.81 157.18 254.58 158.26 252.42 159.27 251.34 159.77 250.33 160.06 249.18 160.49 248.17 160.64 247.16 160.92 246.15 161 245.15 161.14 244.78 161.14 244.21 161 243.42 160.92 242.55 160.64 241.54 160.92 240.47 161.14 238.81 161.43 237.08 161.64 235.93 161.79 234.92 161.79 233.84 161.79 232.69 161.79 231.54 161.64 230.31 161.43 229.09 161.14 227.79 161 226.71 160.49 225.42 160.13 224.19 159.56 223.04 158.91 222.54 158.62 221.96 158.12 220.81 157.4 220.16 156.75 219.66 156.25 218.65 155.31 217.71 154.01 216.92 152.64 216.42 151.92 216.06 151.06 215.7 150.27 215.34 149.41 214.54 147.68 214.4 146.67 214.04 145.52 213.9 145.37"/><path class="cls-2" d="M198.78,116.28l-.72,15.27-2.24,27.57-.79.29-1.87.87-1.37.36-1.51.5-1.58.36-1.52.29-.72.14H184.3l-.72-.14-.64-.15-.51-.21-.65-.29-.36-.5-.36-.51-.28-.5-.22-.72v-2.67l.22-1.08V134.64l-2.09,4.4-.87,2-1.29,2.38-1.23,2.45-1.36,2.52-1.52,2.66-1.36,2.38-1.52,2.23-1.36,2-.72.87-.65.72-.72.65-.65.57-.5.51-.65.28-.51.15h-.28l-.65.21-1.37.15-1,.14h-2.09l-1.22-.14-1.15-.36-.51-.29L155,161l-.5-.36-.51-.36-.57-.36-.44-.65-.36-.51-.36-.64-.28-.72-.22-.65-.22-.87v-1l-.14-1v-.94l-2.23-12.74-.43,1.44-1.23,3.74-1.87,5.4-1.15,3-1.08,3.09-1.3,3.17L141,163l-1.29,2.88-1.23,2.67-.5.93-.65,1.15-.5.8-.58.72-.5.64-.36.36-.44.22-.21.14h-.29l-1.37.22-1.37.43-1.72.22-1.73.14h-.94l-.57-.14H126l-.5-.22-.58-.29-.14-.14-.14-.22-.87,1.16-1,1.44-1.22,1.8-1.66,2-1.94,2.23-2.3,2.38-1.23,1.22-1.22,1.3-1.3,1.37-1.37,1.08-1.36,1.15-1.37,1.08-1.51,1-1.59,1-1.44.86-1.58.94-.79.36-.87.36-1.58.5-1.51.5-.87.22-.86.14-.79.15H90.27l-1.65-.36h-.51l-1.44-.15-1-.14H84.37l-.58-.22-.65-.14-1.36-.36-1.66-.5-.72-.36-.65-.29L77,194.4l-.79-.36-.72-.64-.86-.65-.79-.58-.87-.65-.57-.64-.8-.87-.72-.86-.79-.87-.72-1-3.6,2.59v4.53l-1.15.65-3.1,1.59-2.16,1.15L57,199l-2.74,1.3-2.73,1.22-2.88,1.15-2.88.94-1.52.5-1.51.51-2.59.79-1.37.07-1.29.29-1.23.14H35.12l-1-.14-.93-.14-.51-.15-.43-.07-.36-.29-.36-.21-.86.21-1,.15-1.51.14H25.62l-1-.14-.94-.15-1-.21-1.15-.15-1-.36-1.22-.36-1.15-.5-1.08-.65-1.3-.65-.5-.36-.58-.36-1.15-1-.65-.5-.57-.5-1-1.16-.51-.57-.5-.65-.65-.65-.5-.72-1-1.65-.86-1.59-1-1.87-.87-2-.72-2.23L4,184l-.22-.8-.5-1.87L2.86,180l-.21-1.58-.29-1.8-.22-1.87L2,172.66v-2l.14-1.22v-2.16l.22-1,.5-2.23.44-1.15.21-1.08.51-1,.5-1,.5-1,.65-1,.87-1.59L7.4,154l1.37-2.59,1.73-3.17,2.3-3.6,1.08-1.87,1.37-2,1.37-2.08,1.51-2,1.65-2,1.73-2.23,1.73-2.16,1.87-1.94,1-1.15,1-1,2.16-2,1.08-1,1-.93,2.37-2,2.38-1.87,2.52-1.73,1.37-.86,1.22-.72,1.37-.72,1.29-.72,1.37-.79,1.51-.58,1.37-.65,1.51-.64,1.37-.58,1.59-.5,1.36-.44,1.66-.43,1.15.07,1.23.36,1.65.51.72.29,1,.5.86.5,1,.51.87.57.86.8.5.36.51.36.79.93.43.51.43.5.72,1.15L69,118.3l.22.58.29.64L70,121l.36,1.58.14,1v4.75l-.14,1.15-.29,1.23-.36,2.37-.36,1.3L69,135.65,68.67,137l-.5,1.37-.51,1.37L67,141.27l-.65,1.65-.72,1.52L64.86,146l-.72,1.66h-.51l-1.22-.29-.79-.15-1-.07-.94-.29-1.15-.21-1-.51-.65-.28-.5-.22L55.28,145l-.5-.21-.51-.51-.86-.79-.65-.58-.36-.43-.29-.57-.5-.51-.07-.65-.36-.57-.94-2.31-.58-1.36-.28-.65-.22-.22H49v.87l-2.6,3.16-.79.58-2,1.66L42.25,143l-1.51,1.44L39,146l-1.73,1.66-1.73,1.94-1.8,2-1,1.15-.86,1L31,154.88l-.72,1.29-.94,1.23-.58,1.22L28,159.77,27.42,161l-.65,1.44-.65,1.22-.22.65-.28.57-.36,1.37V167l-.15,2.24v1.51l.15,1.58.28,1.8.36,1.73.22.86.29.87.36.79.21.86.51.72.5.8.51.57.64.65.65.5.72.51.72.21.94.44,1,.21h2.08l.65-.14.58-.07.93-.15,2.38-.29,3.6-.5,2.23-.22,2.23-.5,2.38-.65,2.52-.57,2.52-.65,1.22-.51,1.37-.5,2.52-.86,2.23-1.23,1.16-.65,1-.64,1.08-.72,1-.65.36-2,.43-2.37.72-3.1.87-3.53.5-1.94.65-2.16.72-2,.65-2.37.72-2.09,1-2.38.86-2.23,1-2.3,1.15-2.38,1.15-2.23L78.9,139l1.36-2,.72-1.15.8-.94,1.36-1.87.87-.94.86-.93,1.66-1.66,1-.72.72-.79,1-.72.87-.79,1.15-.58.86-.5,1.16-.51.93-.5,1.15-.5,1-.29,1.23-.36,1.15-.15.21-.07,1-.29,1.37-.36,1.8-.36,2.09-.28,2.23-.22h2.38l1.29.14,1.23.08,1.29.28h.58l.65.22.64.29.58.07,1.15.65,1.08.5,1,.79.5.36.65.51.36.36.36.65.94,1.08.21.64.51.65.21.72.29.72.22.79.14.87.29.86.22.87v6.55l.72,3.31.93-1.87,2.23-5.47,3.46-7.35,2-4.25,2-4.32,2.16-4.24,2.23-4,2.09-3.6,1.15-1.65,1-1.59.87-1.36,1.15-1.3.86-1.08.87-.79.36-.36.5-.22.36-.29.36-.14.43-.07h.22l.36.07.29.14.5-.14.36-.07h.36l.29.07h.36l.36.14.86.36.51.36.36.44.5.36.5.64.51.58.5.65.36,1,.51.86,1,2.52.36,1.37.51,1.51L160,112l.36,1.88.5,1.94.22,2.38.36,2.37.14,2.59.29,2.81.22,2.95,2.3-4.6,2.52-4.76,3-5.18,1.66-2.74,1.66-2.52,1.58-2.37,1.37-2.09.79-.86.58-.8.79-.72.5-.5.58-.5h.29l.21-.29h.29l.22-.07.14.07h.22l.14-.07.36-.29.79-.51.36-.07.65-.29.58-.21.64-.15.65-.14h1.73l.86.14h1l1,.36h.5l.87.29.65.07.72.29.86.36.79.51.87.64.21.36.51.36.43.51.36.36.36.5.21.65.65,1.22.29.8.22.72.14.86.22.79.14.94v.93Zm-109.66,39-.5,1.73-.36,1.72-.22.87-.14.79L87.75,162v3.17l.15.72v.79l.21,1.23.51,1.22.14.65.29.65.21.5.36.51.29.43.36.43.36.5.51.22.36.36.36.29.5.36.5.14.51.07.5.29h.51l.5.15h.65l.5-.15,1.08-.29,1-.36,1.3-.5,1.08-.72,1.15-.86,1-.87.5-.5.58-.65,1-1.22.87-1.3,1-1.51.86-1.44.79-1.66.72-1.73.65-1.8.5-1.72.36-1.59.29-1V154l.07-1.58.15-1.66-.15-1.51v-.72l-.07-.79-.29-1.37-.36-1.22-.14-.65-.36-.51-.14-.5-.36-.5-.22-.51-.5-.43-.29-.43-.51-.36-.36-.22-.36-.43-.5-.22-.5-.21-.51-.15h-.5l-.51-.14-.64-.14-.51.14h-.5l-1.08.14-1.15.51-1.08.5-1.16.72-1.15.87-1,.86-.57.5-.51.65-1,1.15-1,1.37-.87,1.51-1,1.44-.65,1.66-.72,1.73Z"/><polygon class="cls-2" points="200.29 157.69 199.93 154.01 199.42 120.53 199.42 117.65 199.06 111.96 199.93 101.38 200.29 100.88 201.15 99.36 202.95 97.35 203.31 96.7 203.82 96.2 204.97 95.12 206.19 93.96 207.42 92.88 208.06 92.38 208.78 91.88 209.58 91.44 210.3 91.01 211.16 90.72 211.95 90.36 212.67 90.08 213.54 89.86 214.4 89.72 215.19 89.57 216.06 89.57 216.92 89.72 219.08 92.74 218.65 115.56 216.42 121.76 216.42 136.88 215.05 143.14 214.19 157.76 213.03 159.27 212.46 160.06 211.66 160.78 210.94 161.5 210.08 162.44 209.29 163.16 208.28 163.88 207.78 164.02 207.42 164.38 206.84 164.67 206.41 164.74 205.9 165.03 205.4 165.17 204.97 165.17 204.47 165.17 204.03 165.03 203.67 164.88 203.02 164.67 202.66 164.38 200.29 157.69"/></g></g></svg>